<svg width="40" height="40" viewBox="0 0 40 40" fill="none" xmlns="http://www.w3.org/2000/svg">
<path fill-rule="evenodd" clip-rule="evenodd" d="M16 8C16 7.44772 15.5523 7 15 7C14.4477 7 14 7.44772 14 8V9H13C10.2386 9 8 11.2386 8 14V17V26C8 28.7614 10.2386 31 13 31H27C29.7614 31 32 28.7614 32 26V17V14C32 11.2386 29.7614 9 27 9H26V8C26 7.44772 25.5523 7 25 7C24.4477 7 24 7.44772 24 8V9H16V8ZM30 16V14C30 12.3431 28.6569 11 27 11H26V12C26 12.5523 25.5523 13 25 13C24.4477 13 24 12.5523 24 12V11H16V12C16 12.5523 15.5523 13 15 13C14.4477 13 14 12.5523 14 12V11H13C11.3431 11 10 12.3431 10 14V16H30ZM10 18H30V26C30 27.6569 28.6569 29 27 29H13C11.3431 29 10 27.6569 10 26V18Z" fill="#A1A9B7"/>
</svg>
