<svg width="40" height="40" viewBox="0 0 40 40" fill="none" xmlns="http://www.w3.org/2000/svg">
<path fill-rule="evenodd" clip-rule="evenodd" d="M8 20C8 19.522 8.25341 18.7119 8.87524 17.6927C9.47862 16.7039 10.3667 15.6209 11.4779 14.6171C13.7119 12.5992 16.7335 11 20 11C23.2665 11 26.2881 12.5992 28.5221 14.6171C29.6333 15.6209 30.5214 16.7039 31.1248 17.6927C31.7466 18.7119 32 19.522 32 20C32 20.478 31.7466 21.2881 31.1248 22.3073C30.5214 23.2961 29.6333 24.3791 28.5221 25.3829C26.2881 27.4008 23.2665 29 20 29C16.7335 29 13.7119 27.4008 11.4779 25.3829C10.3667 24.3791 9.47862 23.2961 8.87524 22.3073C8.25341 21.2881 8 20.478 8 20ZM20 9C16.0868 9 12.6084 10.9008 10.1373 13.1329C8.89601 14.2541 7.88026 15.4836 7.16796 16.651C6.47413 17.7881 6 18.978 6 20C6 21.022 6.47413 22.2119 7.16796 23.349C7.88026 24.5164 8.89601 25.7459 10.1373 26.8671C12.6084 29.0992 16.0868 31 20 31C23.9132 31 27.3916 29.0992 29.8627 26.8671C31.104 25.7459 32.1197 24.5164 32.832 23.349C33.5259 22.2119 34 21.022 34 20C34 18.978 33.5259 17.7881 32.832 16.651C32.1197 15.4836 31.104 14.2541 29.8627 13.1329C27.3916 10.9008 23.9132 9 20 9ZM17 20C17 18.3431 18.3431 17 20 17C21.6569 17 23 18.3431 23 20C23 21.6569 21.6569 23 20 23C18.3431 23 17 21.6569 17 20ZM20 15C17.2386 15 15 17.2386 15 20C15 22.7614 17.2386 25 20 25C22.7614 25 25 22.7614 25 20C25 17.2386 22.7614 15 20 15Z" fill="#A1A9B7"/>
</svg>
