<svg width="40" height="40" viewBox="0 0 40 40" fill="none" xmlns="http://www.w3.org/2000/svg">
<path d="M32 22V22C32 19.7909 30.2091 18 28 18H12C9.79086 18 8 19.7909 8 22V22" stroke="#EA3C47" stroke-width="2" stroke-linejoin="round"/>
<path d="M20 18L20 15" stroke="#EA3C47" stroke-width="2" stroke-linecap="round"/>
<path d="M10 26L10 30C10 32.2091 11.7909 34 14 34L26 34C28.2091 34 30 32.2091 30 30L30 26" stroke="#EA3C47" stroke-width="2" stroke-linejoin="round"/>
<path d="M8 23C8 24.0609 8.42143 25.0783 9.17157 25.8284C9.92172 26.5786 10.9391 27 12 27C13.0609 27 14.0783 26.5786 14.8284 25.8284C15.5786 25.0783 16 24.0609 16 23C16 24.0609 16.4214 25.0783 17.1716 25.8284C17.9217 26.5786 18.9391 27 20 27C21.0609 27 22.0783 26.5786 22.8284 25.8284C23.5786 25.0783 24 24.0609 24 23C24 24.0609 24.4214 25.0783 25.1716 25.8284C25.9217 26.5786 26.9391 27 28 27C29.0609 27 30.0783 26.5786 30.8284 25.8284C31.5786 25.0783 32 24.0609 32 23" stroke="#EA3C47" stroke-width="2" stroke-linecap="square" stroke-linejoin="round"/>
<path d="M17 11.7639C17 11.2615 17.117 10.7661 17.3416 10.3167L19.1056 6.78885C19.4741 6.05181 20.5259 6.05181 20.8944 6.78885L22.6584 10.3167C22.883 10.7661 23 11.2615 23 11.7639V12C23 13.6569 21.6569 15 20 15V15C18.3431 15 17 13.6569 17 12V11.7639Z" stroke="#EA3C47" stroke-width="2" stroke-linecap="round"/>
</svg>
